<svg width="1200" height="760" viewBox="0 0 1200 760" fill="none" xmlns="http://www.w3.org/2000/svg"><rect width="1200" height="760" rx="36" fill="#0A1521"/><circle cx="1040" cy="104" r="170" fill="#A78BFA" fill-opacity="0.14"/><rect x="96" y="92" width="1008" height="576" rx="34" fill="#10202E" stroke="#335871" stroke-width="2"/><rect x="140" y="138" width="320" height="480" rx="30" fill="#122738" stroke="#355E79" stroke-width="2"/><rect x="502" y="138" width="560" height="190" rx="30" fill="#122738" stroke="#355E79" stroke-width="2"/><rect x="502" y="364" width="560" height="214" rx="30" fill="#122738" stroke="#355E79" stroke-width="2"/><rect x="186" y="196" width="228" height="16" rx="8" fill="#2D5068"/><rect x="186" y="230" width="180" height="16" rx="8" fill="#244257"/><rect x="186" y="280" width="228" height="112" rx="26" fill="#0D1C2A" stroke="#345B74" stroke-width="2"/><path d="M220 358C250 322 292 304 336 304C366 304 394 316 420 340" stroke="#22D3EE" stroke-width="6" stroke-linecap="round"/><path d="M218 408C258 450 306 470 356 470C412 470 450 444 486 394" stroke="#FFB663" stroke-width="6" stroke-linecap="round"/><circle cx="580" cy="232" r="64" fill="#0D1D2B" stroke="#335871" stroke-width="2"/><circle cx="580" cy="232" r="26" fill="#DDF8FF"/><rect x="680" y="196" width="300" height="16" rx="8" fill="#2D5068"/><rect x="680" y="230" width="246" height="16" rx="8" fill="#244257"/><rect x="680" y="264" width="180" height="16" rx="8" fill="#244257"/><rect x="552" y="426" width="164" height="108" rx="26" fill="#0D1D2B" stroke="#335871" stroke-width="2"/><rect x="744" y="426" width="268" height="48" rx="18" fill="#0D1D2B" stroke="#335871" stroke-width="2"/><rect x="744" y="492" width="268" height="48" rx="18" fill="#0D1D2B" stroke="#335871" stroke-width="2"/><path d="M616 480L652 510L716 444" stroke="#34D399" stroke-width="8" stroke-linecap="round" stroke-linejoin="round"/></svg>
