<svg width="1200" height="760" viewBox="0 0 1200 760" fill="none" xmlns="http://www.w3.org/2000/svg"><rect width="1200" height="760" rx="36" fill="#0A1420"/><circle cx="1000" cy="120" r="170" fill="#22D3EE" fill-opacity="0.12"/><rect x="88" y="90" width="1024" height="580" rx="34" fill="#10202E" stroke="#335872" stroke-width="2"/><rect x="138" y="136" width="330" height="472" rx="30" fill="#122738" stroke="#355E79" stroke-width="2"/><rect x="504" y="136" width="558" height="180" rx="30" fill="#122738" stroke="#355E79" stroke-width="2"/><rect x="504" y="348" width="558" height="260" rx="30" fill="#122738" stroke="#355E79" stroke-width="2"/><circle cx="304" cy="392" r="110" fill="#0D1C2A" stroke="#355D78" stroke-width="2"/><circle cx="304" cy="356" r="36" fill="#FFD6B5"/><path d="M236 462C252 412 284 390 304 390C324 390 356 412 372 462" fill="#0C1822"/><path d="M244 462C258 422 286 404 304 404C322 404 350 422 364 462" fill="#22D3EE" fill-opacity="0.22"/><rect x="392" y="304" width="118" height="84" rx="22" fill="#132C3D" stroke="#335972" stroke-width="2"/><path d="M420 336H482" stroke="#22D3EE" stroke-width="6" stroke-linecap="round"/><path d="M420 362H468" stroke="#A78BFA" stroke-width="6" stroke-linecap="round"/><path d="M382 390C426 384 466 372 520 334" stroke="#FFB663" stroke-width="5" stroke-linecap="round" stroke-dasharray="4 12"/><rect x="548" y="186" width="188" height="18" rx="9" fill="#2C4E66"/><rect x="548" y="222" width="152" height="18" rx="9" fill="#244257"/><rect x="778" y="186" width="150" height="18" rx="9" fill="#2C4E66"/><rect x="778" y="222" width="114" height="18" rx="9" fill="#244257"/><rect x="936" y="186" width="90" height="18" rx="9" fill="#2C4E66"/><path d="M598 472C670 420 736 396 804 396C882 396 932 430 998 484" stroke="#1E3548" stroke-width="58" stroke-linecap="round"/><path d="M598 472C670 420 736 396 804 396C882 396 932 430 998 484" stroke="#22D3EE" stroke-width="10" stroke-linecap="round"/><circle cx="598" cy="472" r="14" fill="#22D3EE"/><circle cx="804" cy="396" r="14" fill="#A78BFA"/><circle cx="998" cy="484" r="14" fill="#FFB663"/><rect x="620" y="520" width="206" height="20" rx="10" fill="#2C4E66"/><rect x="848" y="520" width="140" height="20" rx="10" fill="#244257"/></svg>
